HIERARCHY
ROOT joint_Root
{
	OFFSET 0.0 0.0 0.0
	CHANNELS 6 Xposition Yposition Zposition Zrotation Xrotation Yrotation 
	JOINT Hips
	{
		OFFSET -0.726466 93.3139 -2.00062
		CHANNELS 6 Xposition Yposition Zposition Zrotation Xrotation Yrotation 
		JOINT Spine
		{
			OFFSET 15.7357 0.0 0.0
			CHANNELS 6 Xposition Yposition Zposition Zrotation Xrotation Yrotation 
			JOINT Chest
			{
				OFFSET 8.98455 -0.406207 0.0
				CHANNELS 6 Xposition Yposition Zposition Zrotation Xrotation Yrotation 
				JOINT Neck
				{
					OFFSET 16.3773 0.0 0.0
					CHANNELS 6 Xposition Yposition Zposition Zrotation Xrotation Yrotation 
					JOINT Head
					{
						OFFSET 6.45672 0.0 0.0
						CHANNELS 6 Xposition Yposition Zposition Zrotation Xrotation Yrotation 
						End Site
						{
							OFFSET 0.0 0.0 0.0
						}
					}
				}
				JOINT Shoulder_L
				{
					OFFSET 12.9942 -0.242716 4.98039
					CHANNELS 6 Xposition Yposition Zposition Zrotation Xrotation Yrotation 
					JOINT UpperArm_L
					{
						OFFSET 5.34809 0.0 0.0
						CHANNELS 6 Xposition Yposition Zposition Zrotation Xrotation Yrotation 
						JOINT LowerArm_L
						{
							OFFSET 24.3286 1.87007e-05 0.0
							CHANNELS 6 Xposition Yposition Zposition Zrotation Xrotation Yrotation 
							JOINT Hand_L
							{
								OFFSET 22.2916 0.0 0.0
								CHANNELS 6 Xposition Yposition Zposition Zrotation Xrotation Yrotation 
								End Site
								{
									OFFSET 0.0 0.0 0.0
								}
							}
						}
					}
				}
				JOINT Shoulder_R
				{
					OFFSET 12.9945 -0.242716 -4.98039
					CHANNELS 6 Xposition Yposition Zposition Zrotation Xrotation Yrotation 
					JOINT UpperArm_R
					{
						OFFSET -5.34813 0.0 0.0
						CHANNELS 6 Xposition Yposition Zposition Zrotation Xrotation Yrotation 
						JOINT LowerArm_R
						{
							OFFSET -24.3289 0.000322201 0.0
							CHANNELS 6 Xposition Yposition Zposition Zrotation Xrotation Yrotation 
							JOINT Hand_R
							{
								OFFSET -22.2915 -0.000108084 0.0
								CHANNELS 6 Xposition Yposition Zposition Zrotation Xrotation Yrotation 
								End Site
								{
									OFFSET 0.0 0.0 0.0
								}
							}
						}
					}
				}
			}
		}
		JOINT UpperLeg_L
		{
			OFFSET -2.19248 -6.46944 0.0
			CHANNELS 6 Xposition Yposition Zposition Zrotation Xrotation Yrotation 
			JOINT LowerLeg_L
			{
				OFFSET 39.0811 0.0 -1.23785e-05
				CHANNELS 6 Xposition Yposition Zposition Zrotation Xrotation Yrotation 
				JOINT Foot_L
				{
					OFFSET 40.9854 0.0 -1.26872e-05
					CHANNELS 6 Xposition Yposition Zposition Zrotation Xrotation Yrotation 
					JOINT Toes_L
					{
						OFFSET 11.7543 0.0 0.0
						CHANNELS 6 Xposition Yposition Zposition Zrotation Xrotation Yrotation 
						End Site
						{
							OFFSET 0.0 0.0 0.0
						}
					}
				}
			}
		}
		JOINT UpperLeg_R
		{
			OFFSET -2.19251 6.46944 0.0
			CHANNELS 6 Xposition Yposition Zposition Zrotation Xrotation Yrotation 
			JOINT LowerLeg_R
			{
				OFFSET -39.0811 -0.00228153 -0.0401928
				CHANNELS 6 Xposition Yposition Zposition Zrotation Xrotation Yrotation 
				JOINT Foot_R
				{
					OFFSET -40.9854 0.0 0.0
					CHANNELS 6 Xposition Yposition Zposition Zrotation Xrotation Yrotation 
					JOINT Toes_R
					{
						OFFSET -11.7543 0.0 0.0
						CHANNELS 6 Xposition Yposition Zposition Zrotation Xrotation Yrotation 
						End Site
						{
							OFFSET 0.0 0.0 0.0
						}
					}
				}
			}
		}
	}
}
MOTION
Frames:	5
Frame Time:	0.0333333
0.000000 0.000000 0.000000 0.000000 0.000000 -0.000000 0.623706 92.620200 -1.577860 87.117500 -5.054120 1.571840 15.735700 0.000005 -0.000001 88.350800 86.552100 -88.713000 8.984550 -0.406207 -0.000000 -0.873519 -0.171122 -0.725242 16.377300 -0.000001 -0.000001 1.275440 -0.942860 1.982660 6.456720 -0.000001 -0.000000 0.810894 -0.819626 -2.420340 12.994200 -0.242716 4.980390 -89.685200 -0.906764 -70.850300 5.348090 -0.000007 -0.000001 -68.581500 37.020200 -12.648100 24.328600 0.000019 0.000005 1.500550 3.513860 -23.141400 22.291600 -0.000001 0.000005 5.061310 5.510640 -6.968200 12.994500 -0.242716 -4.980390 90.890400 -2.378070 -69.465700 -5.348130 -0.000001 -0.000004 -80.282800 -34.846000 -104.611000 -24.328900 0.000322 -0.000009 12.282500 0.858304 -86.065600 -22.291500 -0.000108 -0.000004 27.198900 5.367950 -1.923150 -2.192480 -6.469440 -0.000000 -176.083000 -6.888550 -4.008260 39.081100 -0.000007 -0.000012 -0.068978 0.176104 21.389700 40.985400 -0.000006 -0.000013 0.318288 0.899035 -65.868800 11.754300 -0.000000 0.000003 -0.000048 -0.000543 -16.598700 -2.192510 6.469440 -0.000001 -179.322000 10.939600 178.064000 -39.081100 -0.002282 -0.040193 0.024379 -0.066206 17.640700 -40.985400 0.000008 0.000006 4.568270 8.087590 -64.011200 -11.754300 -0.000006 -0.000006 -0.006084 -0.071598 -19.487100
0.000000 0.000000 0.000000 0.000000 0.000000 -0.000000 0.574510 92.627200 -1.592560 87.125500 -5.008290 1.539560 15.735700 0.000005 -0.000001 88.673100 86.530800 -89.042500 8.984550 -0.406207 -0.000000 -0.829868 -0.132929 -0.739385 16.377300 -0.000001 -0.000001 1.267110 -0.988607 1.998070 6.456720 -0.000001 -0.000000 0.858844 -0.892343 -2.420850 12.994200 -0.242716 4.980390 -89.689400 -0.894291 -70.846800 5.348090 -0.000007 -0.000001 -68.647600 37.067600 -12.581500 24.328600 0.000019 0.000005 1.536300 3.607020 -23.088000 22.291600 -0.000001 0.000005 5.033870 5.511980 -7.023710 12.994500 -0.242716 -4.980390 90.896200 -2.383910 -69.389200 -5.348130 -0.000001 -0.000004 -80.080900 -34.934700 -104.675000 -24.328900 0.000322 -0.000009 12.465300 0.887349 -85.994200 -22.291500 -0.000108 -0.000004 27.140900 5.364930 -1.830350 -2.192480 -6.469440 -0.000000 -176.057000 -6.881010 -4.033810 39.081100 -0.000007 -0.000012 -0.069207 0.177132 21.341100 40.985400 -0.000006 -0.000013 0.291128 0.943167 -65.826600 11.754300 -0.000000 0.000003 -0.000045 -0.000516 -16.597600 -2.192510 6.469440 -0.000001 -179.279000 10.983000 178.039000 -39.081100 -0.002282 -0.040193 0.024543 -0.066845 17.610300 -40.985400 0.000008 0.000006 4.623990 8.034630 -63.993600 -11.754300 -0.000006 -0.000006 -0.006079 -0.071554 -19.485300
0.000000 0.000000 0.000000 0.000000 0.000000 -0.000000 0.547123 92.629400 -1.608550 87.125300 -4.913520 1.522060 15.735700 0.000005 -0.000001 88.764700 86.510300 -89.118800 8.984550 -0.406207 -0.000000 -0.788572 -0.124002 -0.708672 16.377300 -0.000001 -0.000001 1.302050 -1.046180 2.026830 6.456720 -0.000001 -0.000000 0.835753 -0.976083 -2.450710 12.994200 -0.242716 4.980390 -89.692600 -0.885130 -70.849300 5.348090 -0.000007 -0.000001 -68.791900 37.090900 -12.432700 24.328600 0.000019 0.000005 1.558840 3.666080 -23.053900 22.291600 -0.000001 0.000005 5.050630 5.511930 -7.021940 12.994500 -0.242716 -4.980390 90.905600 -2.399770 -69.316700 -5.348130 -0.000001 -0.000004 -79.745200 -35.094100 -104.590000 -24.328900 0.000322 -0.000009 12.497600 0.894199 -85.974100 -22.291500 -0.000108 -0.000004 27.148700 5.363110 -1.774470 -2.192480 -6.469440 -0.000000 -176.049000 -6.761030 -4.075880 39.081100 -0.000007 -0.000012 -0.068730 0.175917 21.340500 40.985400 -0.000006 -0.000013 0.266413 0.910148 -65.806100 11.754300 -0.000000 0.000003 -0.000053 -0.000598 -16.600700 -2.192510 6.469440 -0.000001 -179.261000 11.053800 178.044000 -39.081100 -0.002282 -0.040193 0.024475 -0.066810 17.565700 -40.985400 0.000008 0.000006 4.643680 8.040600 -63.995600 -11.754300 -0.000006 -0.000006 -0.006099 -0.071733 -19.492600
0.000000 0.000000 0.000000 0.000000 0.000000 -0.000000 0.530867 92.636400 -1.632320 87.154700 -4.828770 1.461050 15.735700 0.000005 -0.000001 88.559500 86.496300 -88.897100 8.984550 -0.406207 -0.000000 -0.761290 -0.151009 -0.676018 16.377300 -0.000001 -0.000001 1.268830 -1.111770 2.055410 6.456720 -0.000001 -0.000000 0.860766 -1.035650 -2.499760 12.994200 -0.242716 4.980390 -89.698000 -0.869073 -70.838300 5.348090 -0.000007 -0.000001 -68.898600 37.104400 -12.292700 24.328600 0.000019 0.000005 1.563680 3.679530 -23.042700 22.291600 -0.000001 0.000005 5.046770 5.511230 -6.992820 12.994500 -0.242716 -4.980390 90.904000 -2.390910 -69.281500 -5.348130 -0.000001 -0.000004 -79.275800 -35.233000 -104.336000 -24.328900 0.000322 -0.000009 12.330500 0.867276 -86.040500 -22.291500 -0.000108 -0.000004 27.147400 5.362920 -1.768700 -2.192480 -6.469440 -0.000000 -176.075000 -6.684440 -4.141910 39.081100 -0.000007 -0.000012 -0.068543 0.175943 21.284500 40.985400 -0.000006 -0.000013 0.263796 0.957386 -65.752900 11.754300 -0.000000 0.000003 -0.000046 -0.000527 -16.598000 -2.192510 6.469440 -0.000001 -179.252000 11.076800 177.990000 -39.081100 -0.002282 -0.040193 0.024519 -0.067134 17.520400 -40.985400 0.000008 0.000006 4.642450 7.964650 -63.977400 -11.754300 -0.000006 -0.000006 -0.005968 -0.070544 -19.444100
0.000000 0.000000 0.000000 0.000000 0.000000 -0.000000 0.521899 92.644300 -1.656510 87.166300 -4.700940 1.434380 15.735700 0.000005 -0.000001 88.293800 86.470100 -88.588100 8.984550 -0.406207 -0.000000 -0.709747 -0.188392 -0.589329 16.377300 -0.000001 -0.000001 1.268020 -1.211640 2.054240 6.456720 -0.000001 -0.000000 0.851851 -1.123090 -2.611790 12.994200 -0.242716 4.980390 -89.710600 -0.836250 -70.908100 5.348090 -0.000007 -0.000001 -68.975100 37.182900 -12.155200 24.328600 0.000019 0.000005 1.532560 3.608090 -23.031600 22.291600 -0.000001 0.000005 5.077610 5.511080 -6.986450 12.994500 -0.242716 -4.980390 90.901900 -2.370750 -69.163900 -5.348130 -0.000001 -0.000004 -78.491300 -35.357300 -103.639000 -24.328900 0.000322 -0.000009 12.077400 0.778712 -86.367500 -22.291500 -0.000108 -0.000004 27.016200 5.362490 -1.755940 -2.192480 -6.469440 -0.000000 -176.085000 -6.623150 -4.185250 39.081100 -0.000007 -0.000012 -0.068608 0.176510 21.240800 40.985400 -0.000006 -0.000013 0.269668 1.007290 -65.701400 11.754300 -0.000000 0.000003 -0.000046 -0.000528 -16.598100 -2.192510 6.469440 -0.000001 -179.250000 11.141400 177.978000 -39.081100 -0.002282 -0.040193 0.024524 -0.067335 17.474800 -40.985400 0.000008 0.000006 4.640930 7.900480 -63.941100 -11.754300 -0.000006 -0.000006 -0.006168 -0.072353 -19.517900
